<svg width="1766" height="479" viewBox="0 0 1766 479" fill="none" xmlns="http://www.w3.org/2000/svg">
<path d="M10.442 400L7.49932 398.039L3.83725 403.536H10.442V400ZM128.234 223.201L131.177 225.162L132.469 223.222L131.196 221.27L128.234 223.201ZM23.4809 62.5349V58.9989H16.9543L20.5189 64.4661L23.4809 62.5349ZM132.433 62.5349L135.437 60.6691L134.4 58.9989H132.433V62.5349ZM181.716 141.873L185.035 140.653L184.91 140.314L184.72 140.008L181.716 141.873ZM187.241 156.901L183.922 158.122L187.2 167.038L190.55 158.148L187.241 156.901ZM192.987 141.652L189.982 139.789L189.8 140.082L189.678 140.406L192.987 141.652ZM242.049 62.5349V58.9989H240.081L239.044 60.6714L242.049 62.5349ZM347.244 62.5349L350.206 64.4661L353.771 58.9989H347.244V62.5349ZM242.491 223.201L239.529 221.27L238.257 223.22L239.546 225.159L242.491 223.201ZM360.062 400V403.536H366.66L363.006 398.042L360.062 400ZM250.668 400L247.672 401.879L248.712 403.536H250.668V400ZM191.882 306.297L188.649 307.729L188.752 307.961L188.887 308.176L191.882 306.297ZM183.263 286.849L186.496 285.416L183.196 277.971L180.009 285.465L183.263 286.849ZM175.086 306.076L178.08 307.957L178.23 307.718L178.34 307.459L175.086 306.076ZM116.079 400V403.536H118.034L119.074 401.881L116.079 400ZM13.3847 401.961L131.177 225.162L125.292 221.24L7.49932 398.039L13.3847 401.961ZM131.196 221.27L26.4429 60.6037L20.5189 64.4661L125.272 225.132L131.196 221.27ZM23.4809 66.0709H132.433V58.9989H23.4809V66.0709ZM129.43 64.4007L178.712 143.739L184.72 140.008L135.437 60.6691L129.43 64.4007ZM178.397 143.094L183.922 158.122L190.56 155.681L185.035 140.653L178.397 143.094ZM190.55 158.148L196.296 142.899L189.678 140.406L183.932 155.655L190.55 158.148ZM195.992 143.516L245.054 64.3984L239.044 60.6714L189.982 139.789L195.992 143.516ZM242.049 66.0709H347.244V58.9989H242.049V66.0709ZM344.282 60.6037L239.529 221.27L245.453 225.132L350.206 64.4661L344.282 60.6037ZM239.546 225.159L357.118 401.958L363.006 398.042L245.435 221.243L239.546 225.159ZM360.062 396.464H250.668V403.536H360.062V396.464ZM253.663 398.121L194.877 304.417L188.887 308.176L247.672 401.879L253.663 398.121ZM195.115 304.864L186.496 285.416L180.03 288.281L188.649 307.729L195.115 304.864ZM180.009 285.465L171.832 304.692L178.34 307.459L186.517 288.232L180.009 285.465ZM172.092 304.194L113.085 398.119L119.074 401.881L178.08 307.957L172.092 304.194ZM116.079 396.464H10.442V403.536H116.079V396.464ZM387.024 357.126L384.569 359.672L384.575 359.677L384.581 359.683L387.024 357.126ZM347.686 300.33L344.453 301.762L347.686 300.33ZM347.686 161.542L350.916 162.982L350.919 162.974L347.686 161.542ZM387.024 104.967L384.581 102.41L384.581 102.41L387.024 104.967ZM651.117 104.967L648.675 107.523L648.681 107.529L648.687 107.535L651.117 104.967ZM690.455 161.321L693.688 159.889L690.455 161.321ZM651.117 357.126L653.56 359.683L653.566 359.677L653.572 359.672L651.117 357.126ZM451.998 297.678L449.497 300.178L449.507 300.188L449.517 300.198L451.998 297.678ZM586.144 297.678L588.634 300.188L588.639 300.183L588.644 300.178L586.144 297.678ZM585.923 164.636L583.422 167.137L583.433 167.147L583.443 167.157L585.923 164.636ZM451.998 164.636L454.488 167.147L454.488 167.147L451.998 164.636ZM519.181 405.083C493.983 405.083 470.124 400.524 447.576 391.417L444.927 397.975C468.347 407.432 493.107 412.155 519.181 412.155V405.083ZM447.576 391.417C424.971 382.289 405.617 369.999 389.467 354.57L384.581 359.683C401.433 375.783 421.564 388.54 444.927 397.975L447.576 391.417ZM389.478 354.581C373.322 339.001 360.467 320.452 350.919 298.897L344.453 301.762C354.353 324.112 367.724 343.427 384.569 359.672L389.478 354.581ZM350.919 298.897C341.399 277.405 336.636 254.688 336.636 230.715H329.564C329.564 255.656 334.526 279.35 344.453 301.762L350.919 298.897ZM336.636 230.715C336.636 206.892 341.397 184.326 350.916 162.982L344.457 160.102C334.527 182.369 329.564 205.918 329.564 230.715H336.636ZM350.919 162.974C360.466 141.422 373.317 122.952 389.467 107.523L384.581 102.41C367.728 118.511 354.355 137.757 344.453 160.11L350.919 162.974ZM389.467 107.523C405.617 92.0938 424.971 79.8044 447.576 70.6756L444.927 64.1182C421.564 73.5532 401.433 86.3103 384.581 102.41L389.467 107.523ZM447.576 70.6756C470.124 61.5694 493.983 57.0099 519.181 57.0099V49.938C493.107 49.938 468.347 54.6604 444.927 64.1182L447.576 70.6756ZM519.181 57.0099C544.229 57.0099 568.015 61.5684 590.566 70.6756L593.214 64.1182C569.797 54.6614 545.11 49.938 519.181 49.938V57.0099ZM590.566 70.6756C613.17 79.8044 632.524 92.0938 648.675 107.523L653.56 102.41C636.708 86.3103 616.577 73.5532 593.214 64.1182L590.566 70.6756ZM648.687 107.535C664.829 122.812 677.677 141.204 687.222 162.753L693.688 159.889C683.786 137.533 670.408 118.356 653.548 102.398L648.687 107.535ZM687.222 162.753C696.744 184.249 701.505 206.892 701.505 230.715H708.577C708.577 205.918 703.614 182.299 693.688 159.889L687.222 162.753ZM701.505 230.715C701.505 254.688 696.743 277.405 687.222 298.897L693.688 301.762C703.616 279.35 708.577 255.656 708.577 230.715H701.505ZM687.222 298.897C677.674 320.452 664.82 339.001 648.663 354.581L653.572 359.672C670.418 343.427 683.788 324.112 693.688 301.762L687.222 298.897ZM648.675 354.57C632.524 369.999 613.17 382.289 590.566 391.417L593.214 397.975C616.577 388.54 636.708 375.783 653.56 359.683L648.675 354.57ZM590.566 391.417C568.015 400.525 544.229 405.083 519.181 405.083V412.155C545.11 412.155 569.797 407.431 593.214 397.975L590.566 391.417ZM449.517 300.198C468.611 318.986 491.902 328.396 519.181 328.396V321.324C493.715 321.324 472.218 312.613 454.478 295.157L449.517 300.198ZM519.181 328.396C546.461 328.396 569.684 318.985 588.634 300.188L583.654 295.167C566.065 312.614 544.647 321.324 519.181 321.324V328.396ZM588.644 300.178C607.588 281.234 617.084 258.083 617.084 230.936H610.012C610.012 256.239 601.238 277.582 583.643 295.177L588.644 300.178ZM617.084 230.936C617.084 203.92 607.502 180.909 588.403 162.116L583.443 167.157C601.177 184.607 610.012 205.796 610.012 230.936H617.084ZM588.423 162.136C569.48 143.193 546.328 133.696 519.181 133.696V140.768C544.484 140.768 565.827 149.542 583.422 167.137L588.423 162.136ZM519.181 133.696C491.893 133.696 468.598 143.188 449.507 162.126L454.488 167.147C472.23 149.547 493.724 140.768 519.181 140.768V133.696ZM449.507 162.126C430.559 180.922 421.058 203.93 421.058 230.936H428.13C428.13 205.787 436.898 184.595 454.488 167.147L449.507 162.126ZM421.058 230.936C421.058 258.083 430.554 281.234 449.497 300.178L454.498 295.177C436.903 277.582 428.13 256.239 428.13 230.936H421.058ZM967.588 62.5349V58.9989H964.052V62.5349H967.588ZM1058.64 62.5349H1062.18V58.9989H1058.64V62.5349ZM1058.64 402.652V406.188H1062.18V402.652H1058.64ZM974.66 402.652L971.862 404.815L972.924 406.188H974.66V402.652ZM828.579 213.698L831.377 211.535L824.982 203.263L825.044 213.719L828.579 213.698ZM829.684 400V403.536H833.241L833.22 399.979L829.684 400ZM738.191 400H734.655V403.536H738.191V400ZM738.191 60.3249V56.7889H734.655V60.3249H738.191ZM822.613 60.3249L825.475 58.2497L824.417 56.7889H822.613V60.3249ZM967.588 260.329L964.725 262.404L971.124 271.232V260.329H967.588ZM967.588 66.0709H1058.64V58.9989H967.588V66.0709ZM1055.1 62.5349V402.652H1062.18V62.5349H1055.1ZM1058.64 399.116H974.66V406.188H1058.64V399.116ZM977.457 400.489L831.377 211.535L825.782 215.861L971.862 404.815L977.457 400.489ZM825.044 213.719L826.149 400.021L833.22 399.979L832.115 213.677L825.044 213.719ZM829.684 396.464H738.191V403.536H829.684V396.464ZM741.727 400V60.3249H734.655V400H741.727ZM738.191 63.8609H822.613V56.7889H738.191V63.8609ZM819.75 62.4001L964.725 262.404L970.451 258.254L825.475 58.2497L819.75 62.4001ZM971.124 260.329V62.5349H964.052V260.329H971.124ZM1104.16 400H1100.63V403.536H1104.16V400ZM1104.16 62.5349V58.9989H1100.63V62.5349H1104.16ZM1322.07 62.5349H1325.61V58.9989H1322.07V62.5349ZM1322.07 144.083V147.619H1325.61V144.083H1322.07ZM1195.66 144.083V140.547H1192.12V144.083H1195.66ZM1195.66 192.04H1192.12V195.576H1195.66V192.04ZM1306.16 192.04H1309.69V188.504H1306.16V192.04ZM1306.16 267.18V270.716H1309.69V267.18H1306.16ZM1195.66 267.18V263.644H1192.12V267.18H1195.66ZM1195.66 318.451H1192.12V321.987H1195.66V318.451ZM1324.28 318.451H1327.82V314.915H1324.28V318.451ZM1324.28 400V403.536H1327.82V400H1324.28ZM1107.7 400V62.5349H1100.63V400H1107.7ZM1104.16 66.0709H1322.07V58.9989H1104.16V66.0709ZM1318.53 62.5349V144.083H1325.61V62.5349H1318.53ZM1322.07 140.547H1195.66V147.619H1322.07V140.547ZM1192.12 144.083V192.04H1199.19V144.083H1192.12ZM1195.66 195.576H1306.16V188.504H1195.66V195.576ZM1302.62 192.04V267.18H1309.69V192.04H1302.62ZM1306.16 263.644H1195.66V270.716H1306.16V263.644ZM1192.12 267.18V318.451H1199.19V267.18H1192.12ZM1195.66 321.987H1324.28V314.915H1195.66V321.987ZM1320.74 318.451V400H1327.82V318.451H1320.74ZM1324.28 396.464H1104.16V403.536H1324.28V396.464Z" fill="#6F6F70" fill-opacity="0.2"/>
</svg>
