<svg width="24" height="24" viewBox="0 0 24 24" fill="none" xmlns="http://www.w3.org/2000/svg">
<path d="M12 2C6.475 2 2 6.475 2 12C2 17.525 6.475 22 12 22C17.525 22 22 17.525 22 12C22 6.475 17.525 2 12 2ZM11 19.93C7.055 19.44 4 16.08 4 12C4 11.385 4.075 10.785 4.21 10.21L9 15V16C9 17.105 9.895 18 11 18V19.93ZM17.895 17.395C17.64 16.585 16.89 16 16 16H15V13C15 12.45 14.55 12 14 12H8V10H10C10.55 10 11 9.55 11 9V7H13C14.105 7 15 6.105 15 5V4.585C17.93 5.77 20 8.64 20 12C20 14.08 19.2 15.97 17.895 17.395Z" fill="white"/>
</svg>
